/* XPM */
static char *gravium32[] = {
/* columns rows colors chars-per-pixel */
"32 32 53 1 ",
"  c #02AE91",
". c #02AF92",
"X c #02B093",
"o c #02B194",
"O c #02B295",
"+ c #02B497",
"@ c #00CCAD",
"# c #00CEAF",
"$ c #00CFB1",
"% c #00D1B2",
"& c #00D2B2",
"* c #00D2B3",
"= c #858585",
"- c #878787",
"; c #8C8C8D",
": c #999999",
"> c #9B9B9B",
", c #9C9C9C",
"< c #9C9C9D",
"1 c #A0A0A0",
"2 c #A2A2A2",
"3 c #A3A3A4",
"4 c #A6A6A7",
"5 c #A7A7A7",
"6 c #A7A7A8",
"7 c #A8A8A9",
"8 c #A9A9A9",
"9 c #ACACAC",
"0 c #ACACAD",
"q c #ADADAD",
"w c #B5B5B5",
"e c #B6B6B6",
"r c #B7B7B7",
"t c #B8B8B8",
"y c #B8B8B9",
"u c #B9B9B9",
"i c #C2C2C2",
"p c #C4C4C4",
"a c #C7C7C7",
"s c #C7C7C8",
"d c #D6D6D6",
"f c #D7D7D7",
"g c #D9D9D9",
"h c #DFDFDF",
"j c #E6E6E6",
"k c #E8E8E8",
"l c #EAEAEA",
"z c #ECECEC",
"x c #EDEDED",
"c c #EEEEEE",
"v c #EFEFEF",
"b c #F0F0F0",
"n c None",
/* pixels */
"nnnnnnnnnnnnnnnnnnnnnnnnnnnnnnnn",
"nnnnnnnnnnnnnnnnnnnnnnnnnnnnnnnn",
"nnnnnnnnnn............nnnnnnnnnn",
"nnnnnnnnnnn..........nnnnnnnnnnn",
"nnnnnnno$n*$n......n$*n*onnnnnnn",
"nnnnnn.o*****#+..+@****$o.nnnnnn",
"nnnnnn.o*$n****nn***$n**o.nnnnnn",
"nnnnn..o****$*nnnn******o..nnnnn",
"nnnn...o***nnnn>>nnnn***o...nnnn",
"nnnn...o**nnnnijjinnnn**o...nnnn",
"nnn....XnnnnehbbbchennnnX....nnn",
"nnn....nnn5dcbcdgcbcd8nnn....nnn",
"nn...n#nn9kbbjennehbksnnn#n...nn",
"nn.on***nuccannnnn-e5nnn***no.nn",
"nnn*****nuck:nnn198<29;n*****nnn",
"nn****$nnuck>nnngcccccenn*****nn",
"nn**$**nnuck<nnngcccccunn***$*nn",
"nnn*****nubk>nnn195ecbun*****nnn",
"nn.on***nubcannnnn=iccun***no.nn",
"nn...n#nn9kbchennwjcbk9nn#n...nn",
"nnn....nnn5dcccgdcbcd5nnn..X.nnn",
"nnn....XnnnnehcbbchennnnX....nnn",
"nnnn...X**nnnnijjinnnn**o...nnnn",
"nnnn....***nnnn><nnnn***X...nnnn",
"nnnnn..o$***$*nnnn******o..nnnnn",
"nnnnnn.o**n****nn*$**n$*o.nnnnnn",
"nnnnnn.o*****@o..+@**$**o.nnnnnn",
"nnnnnnno*n*$n.X....n$*n*onnnnnnn",
"nnnnnnnnnnn..........nnnnnnnnnnn",
"nnnnnnnnnn............nnnnnnnnnn",
"nnnnnnnnnnnnnnnnnnnnnnnnnnnnnnnn",
"nnnnnnnnnnnnnnnnnnnnnnnnnnnnnnnn"
};
