/* XPM */
static char *gravium64[] = {
/* columns rows colors chars-per-pixel */
"64 64 77 1 ",
"  c #49494A",
". c #4A4A4B",
"X c #4D4D4E",
"o c #555556",
"O c #565657",
"+ c #575757",
"@ c #585859",
"# c #5B5B5C",
"$ c #5F5F60",
"% c #616162",
"& c #626263",
"* c #636363",
"= c #646464",
"- c #666666",
"; c #6D6D6E",
": c #707070",
"> c #707071",
", c #727272",
"< c #727273",
"1 c #737374",
"2 c #757575",
"3 c #7E7E7E",
"4 c #7F7F7F",
"5 c #7F7F80",
"6 c #02AE91",
"7 c #02AE92",
"8 c #02AF92",
"9 c #00D1B2",
"0 c #00D2B3",
"q c #828283",
"w c #8F8F8F",
"e c #8F8F90",
"r c #909091",
"t c #9C9C9D",
"y c #9D9D9E",
"u c #9E9E9E",
"i c #9F9FA0",
"p c #A1A1A1",
"a c #A1A1A2",
"s c #A2A2A3",
"d c #A3A3A3",
"f c #AEAEAF",
"g c #AFAFAF",
"h c #B1B1B2",
"j c #B3B3B4",
"k c #B4B4B5",
"l c #BCBCBC",
"z c #C0C0C0",
"x c #C1C1C2",
"c c #C4C4C4",
"v c #C4C4C5",
"b c #C6C6C6",
"n c #C6C6C7",
"m c #C7C7C7",
"M c #C8C8C8",
"N c #C9C9C9",
"B c #D0D0D0",
"V c #D1D1D1",
"C c #D6D6D7",
"Z c #D8D8D9",
"A c #DADADA",
"S c #DCDCDC",
"D c #DDDDDD",
"F c #DEDEDE",
"G c #E1E1E1",
"H c #E2E2E2",
"J c #E3E3E3",
"K c #E4E4E4",
"L c #E5E5E5",
"P c #E6E6E6",
"I c #EBEBEB",
"U c #EEEEEE",
"Y c #EFEFEF",
"T c #F0F0F0",
"R c #F1F1F1",
"E c #F2F2F2",
"W c None",
/* pixels */
"WWWWWWWWWWWWWWWWWWWWWWWWWWWWWWWWWWWWWWWWWWWWWWWWWWWWWWWWWWWWWWWW",
"WWWWWWWWWWWWWWWWWWWWWWWWWWWWWWWWWWWWWWWWWWWWWWWWWWWWWWWWWWWWWWWW",
"WWWWWWWWWWWWWWWWWWWWWWWWWWWWWWWWWWWWWWWWWWWWWWWWWWWWWWWWWWWWWWWW",
"WWWWWWWWWWWWWWWWWWWWWWWWWWWWWWWWWWWWWWWWWWWWWWWWWWWWWWWWWWWWWWWW",
"WWWWWWWWWWWWWWWWWWWWWWWWWWWWWWWWWWWWWWWWWWWWWWWWWWWWWWWWWWWWWWWW",
"WWWWWWWWWWWWWWWWWWWW888888888888888888888888WWWWWWWWWWWWWWWWWWWW",
"WWWWWWWWWWWWWWWWWW0WW8888888888888888888888WW0WWWWWWWWWWWWWWWWWW",
"WWWWWWWWWWWWWWWWWWW00WW888888888888888888WW00WWWWWWWWWWWWWWWWWWW",
"WWWWWWWWWWWWWW8W09W000WWW88888888888888WWW000W00W8WWWWWWWWWWWWWW",
"WWWWWWWWWWWWW88W09WW9099WWW8888888888WWW0090WW00W88WWWWWWWWWWWWW",
"WWWWWWWWWWWWW88W090W909900WW88888888WW999999W090W88WWWWWWWWWWWWW",
"WWWWWWWWWWWW888W000WW0990000WW8888WW0999900WW990W888WWWWWWWWWWWW",
"WWWWWWWWWWWW888W0999W09099990WWWWWW00099990W0090W888WWWWWWWWWWWW",
"WWWWWWWWWWW8888W09990W90999900WWWW00999999W99090W8888WWWWWWWWWWW",
"WWWWWWWWWW88888W09990WW099990WWWWWW090999WW09990W88888WWWWWWWWWW",
"WWWWWWWWWW88888W099900W9900WWWWWWWWWW0999W009990W88888WWWWWWWWWW",
"WWWWWWWWW888888W009999WW0WWWWWWO@WWWWWW0WW999900W888888WWWWWWWWW",
"WWWWWWWWW888888W0099990WWWWWWWqvvqWWWWWWW9909900W888888WWWWWWWWW",
"WWWWWWWW8888888W000900WWWWWW>jKTTKh>WWWWWW009900W8888888WWWWWWWW",
"WWWWWWWW8888888W0099WWWWWW&dFTTYYTYFd&WWWWWW9900W8888888WWWWWWWW",
"WWWWWWW88888888W00WWWWWWOwBYYYYYYYYYYBwOWWWWWW00W88888888WWWWWWW",
"WWWWWW888888888WWWWWWWW3lITYYYYYYYIYYYIl3WWWWWWWW888888888WWWWWW",
"WWWWWW888888888WWWWWW;fKYYYYIYYTYYYYYIYTKf;WWWWWW888888888WWWWWW",
"WWWWW88888888WWWWWW#tATYYYIYYYKhhJYYYYYYYTAt&WWWWWW88888888WWWWW",
"WWWWW888888WWW0WWW&vYYYYYYIYIx5WW3xYYYYYYYYIt.WWW0WWW888888WWWWW",
"WWWW888888WW990WWW>JYYYIYYYBrOWWWW+rBYYYYYBw@WWWW000WW888888WWWW",
"WWWW8888WW00990WWW>JYIYYTFd=WWWWWWWW=dFYFd=WWWWWW09900WW8888WWWW",
"WWW888WWW000000WWW;GYYYYv>WWWWWWWWWWWW2t1WWWWWWWW099000WWW888WWW",
"WW88WWW00099990WWW>JYYYYdWWWWWWWWWWWWWX.XWWWWWWWW00099990WWW88WW",
"WW8WW0009000990WWW;JYYYYdWWWWWW#kNNvvNvNNvvNl-WWW0990099000WW8WW",
"WWW000009000900WWW>FYYYYdWWWWWW=ATYYTTTTYYTYJ>WWW099000009000WWW",
"WWWWWWWWWWWWWWWWWW:JYIYYtWWWWWW&CYYYYYYTYYYYJ>WWWWWWWWWWWWWWWWWW",
"WWWWWWWWWWWWWWWWWW;JYYYYdWWWWWW&CTYYYYYYYYIYF:WWWWWWWWWWWWWWWWWW",
"WWW000000009000WWW>FYYYYdWWWWWW&ATTTYTYYYIYYJ:WWW000990000000WWW",
"WW8WW0000099000WWW:JYIYYiWWWWWW#kNvMvvvFYYYYG>WWW9009900000WW8WW",
"WW88WWW09999990WWW:FYYYYtWWWWWWWWWWWWW.dYYYYG;WWW99999900WWW88WW",
"WWW888WWW000999WWW>JYIYYN>WWWWWWWWWWWW>MYYYYJ:WWW009990WWW888WWW",
"WWWW8888WW00009WWW>FYYYYTFd-WWWWWWWW-dFTYYIYF>WWW00090WW8888WWWW",
"WWWW888888WW000WWW>JYYIYYYYBeOWWWWOrBYYYYIYYJ>WWW000WW888888WWWW",
"WWWWW888888WWW0WWW&vYYYYYYYTYx3WW5xIYYYYYYYYc&WWW0WWW888888WWWWW",
"WWWWW88888888WWWWWW$tATYYYYIYYJhhKTYYYIYYYAt$WWWWWW88888888WWWWW",
"WWWWWW888888888WWWWWW;fKYYYYYYYYTYYYYYYYJf;WWWWWW888888888WWWWWW",
"WWWWWW888888888WWWWWWWW3zIYYYIYYYIYYYYIx3WWWWWWWW888888888WWWWWW",
"WWWWWWW88888888W00WWWWWWOwBYYYYYYYYYYBwOWWWWWW00W88888888WWWWWWW",
"WWWWWWWW8888888W0999WWWWWW&dFTYYYYTFd&WWWWWW0090W8888888WWWWWWWW",
"WWWWWWWW8888888W099900WWWWWW>kKTYKk>WWWWWW999090W8888888WWWWWWWW",
"WWWWWWWWW888888W0999000WWWWWWWqvxqWWWWWWW0099990W888888WWWWWWWWW",
"WWWWWWWWW888888W099900WW0WWWWWWO+WWWWWW0WW009990W888888WWWWWWWWW",
"WWWWWWWWWW88888W099999W0099WWWWWWWWWW9990W999990W88888WWWWWWWWWW",
"WWWWWWWWWW88888W09990WW909000WWWWWW909990WW09990W88888WWWWWWWWWW",
"WWWWWWWWWWW8888W09000W09999900WWWW00099900W09990W8888WWWWWWWWWWW",
"WWWWWWWWWWWW888W0990W00099990WWWWWW99999990W9900W888WWWWWWWWWWWW",
"WWWWWWWWWWWW888W009WW9909900WW8888WW0009999WW000W888WWWWWWWWWWWW",
"WWWWWWWWWWWWW88W009W099099WW88888888WW009900W000W88WWWWWWWWWWWWW",
"WWWWWWWWWWWWW88W00WW0900WWW8888888888WWW0099WW00W88WWWWWWWWWWWWW",
"WWWWWWWWWWWWWW8W00W999WWW88888888888888WWW990W00W8WWWWWWWWWWWWWW",
"WWWWWWWWWWWWWWWWWWW00WW888888888888888888WW00WWWWWWWWWWWWWWWWWWW",
"WWWWWWWWWWWWWWWWWW0WW8888888888888888888888WW0WWWWWWWWWWWWWWWWWW",
"WWWWWWWWWWWWWWWWWWWW888888888888888888888888WWWWWWWWWWWWWWWWWWWW",
"WWWWWWWWWWWWWWWWWWWWWWWWWWWWWWWWWWWWWWWWWWWWWWWWWWWWWWWWWWWWWWWW",
"WWWWWWWWWWWWWWWWWWWWWWWWWWWWWWWWWWWWWWWWWWWWWWWWWWWWWWWWWWWWWWWW",
"WWWWWWWWWWWWWWWWWWWWWWWWWWWWWWWWWWWWWWWWWWWWWWWWWWWWWWWWWWWWWWWW",
"WWWWWWWWWWWWWWWWWWWWWWWWWWWWWWWWWWWWWWWWWWWWWWWWWWWWWWWWWWWWWWWW",
"WWWWWWWWWWWWWWWWWWWWWWWWWWWWWWWWWWWWWWWWWWWWWWWWWWWWWWWWWWWWWWWW"
};
